<svg xmlns="http://www.w3.org/2000/svg" viewBox="0 0 24 24" width="24" height="24"><path fill="#24292F" d="M12 1.27a11 11 0 00-3.48 21.46c.55.09.73-.24.73-.53v-1.85c-3.01.65-3.64-1.45-3.64-1.45-.49-1.25-1.2-1.58-1.2-1.58-.98-.67.07-.66.07-.66 1.08.08 1.65 1.11 1.65 1.11.96 1.65 2.52 1.17 3.14.89.1-.7.38-1.17.69-1.44-2.42-.28-4.96-1.21-4.96-5.38 0-1.19.42-2.16 1.11-2.92-.11-.27-.48-1.36.11-2.84 0 0 .91-.29 2.98 1.1.86-.24 1.79-.36 2.71-.37.92 0 1.85.13 2.71.37 2.07-1.39 2.98-1.1 2.98-1.1.59 1.48.22 2.57.11 2.84.69.76 1.11 1.73 1.11 2.92 0 4.18-2.55 5.1-4.98 5.37.39.34.73 1 .73 2.02v2.99c0 .29.19.63.74.53A11 11 0 0012 1.27"/></svg>